<?xml version="1.0" standalone="no"?>
<!DOCTYPE svg PUBLIC "-//W3C//DTD SVG 20010904//EN"
 "http://www.w3.org/TR/2001/REC-SVG-20010904/DTD/svg10.dtd">
<svg version="1.0" xmlns="http://www.w3.org/2000/svg"
 width="483.000000pt" height="432.000000pt" viewBox="0 0 483.000000 432.000000"
 preserveAspectRatio="xMidYMid meet">

<g transform="translate(0.000000,432.000000) scale(0.100000,-0.100000)"
fill="#000000" stroke="none">
<path d="M2185 4290 c-760 -69 -1433 -451 -1820 -1035 -550 -828 -424 -1872
312 -2576 330 -316 749 -529 1225 -623 195 -39 336 -49 588 -43 396 10 711 85
1055 252 815 396 1298 1179 1244 2016 -65 1001 -888 1822 -1991 1989 -151 23
-470 34 -613 20z m545 -56 c1043 -122 1882 -889 2004 -1833 108 -829 -337
-1636 -1134 -2060 -511 -271 -1140 -357 -1726 -236 -546 113 -1070 432 -1383
844 -283 371 -421 769 -421 1211 0 506 206 995 578 1374 423 431 992 681 1637
719 96 6 310 -3 445 -19z"/>
<path d="M2190 4164 c-14 -3 -77 -11 -140 -20 -880 -118 -1626 -744 -1825
-1532 -72 -285 -74 -632 -5 -904 120 -470 423 -888 850 -1175 292 -196 620
-320 1005 -379 133 -20 494 -23 630 -5 793 104 1444 547 1760 1196 129 266
185 508 185 805 0 308 -54 538 -190 815 -102 208 -216 369 -375 529 -437 439
-1037 680 -1688 675 -100 -1 -193 -3 -207 -5z m450 -49 c308 -31 564 -102 825
-230 208 -102 374 -219 548 -385 365 -349 571 -787 593 -1265 39 -858 -539
-1638 -1436 -1935 -387 -129 -838 -156 -1245 -74 -679 135 -1258 569 -1536
1149 -307 641 -209 1397 253 1950 475 569 1228 867 1998 790z"/>
<path d="M2293 3563 c-4 -10 -9 -20 -13 -23 -17 -14 -72 -104 -92 -151 -31
-78 -32 -224 -1 -292 34 -74 112 -147 266 -250 157 -105 243 -185 281 -264 28
-55 46 -132 46 -194 0 -22 4 -39 8 -39 5 0 18 28 30 63 47 138 56 289 21 384
-29 79 -97 142 -239 223 -142 81 -219 150 -261 236 -32 64 -32 64 -27 194 4
119 -2 158 -19 113z"/>
<path d="M2087 3265 c-20 -30 -37 -62 -37 -70 0 -7 -4 -16 -9 -19 -5 -3 -21
-36 -36 -73 -22 -55 -26 -80 -25 -147 1 -45 2 -91 2 -103 0 -13 4 -23 9 -23 5
0 16 -15 25 -32 35 -70 88 -118 248 -227 94 -64 186 -135 213 -165 56 -62 101
-153 108 -221 16 -135 20 -138 53 -40 48 145 54 298 14 387 -30 68 -92 125
-217 197 -154 89 -211 134 -255 202 -51 80 -66 162 -52 285 6 49 7 92 3 96 -4
5 -24 -17 -44 -47z"/>
<path d="M1932 3012 c-33 -38 -91 -138 -115 -197 -14 -36 -20 -74 -21 -135 -1
-75 2 -92 28 -145 39 -79 99 -137 226 -219 169 -110 176 -115 233 -175 79 -82
127 -190 127 -285 1 -110 36 -51 71 116 23 114 24 165 3 238 -30 108 -90 165
-300 285 -103 58 -172 124 -208 198 -33 68 -40 128 -28 247 6 52 9 96 8 97 0
1 -11 -11 -24 -25z"/>
<path d="M2835 1784 c-326 -32 -1125 -189 -1208 -236 -20 -12 -19 -13 22 -16
24 -2 98 6 165 17 131 22 309 43 506 61 155 14 522 15 610 1 64 -10 122 -14
168 -12 38 2 82 53 82 96 0 103 -57 118 -345 89z"/>
<path d="M2030 1480 c-230 -23 -432 -58 -665 -115 -210 -52 -317 -85 -323
-103 -5 -17 9 -16 150 13 462 91 630 106 1248 106 621 0 870 -19 1265 -96 160
-31 265 -42 265 -28 0 13 -45 32 -160 66 -239 73 -569 136 -839 162 -230 21
-696 19 -941 -5z"/>
<path d="M1435 1151 c-7 -12 12 -24 25 -16 11 7 4 25 -10 25 -5 0 -11 -4 -15
-9z"/>
<path d="M1680 1145 c0 -8 7 -15 15 -15 8 0 15 7 15 15 0 8 -7 15 -15 15 -8 0
-15 -7 -15 -15z"/>
<path d="M1890 1130 c0 -20 -5 -30 -15 -30 -8 0 -15 -4 -15 -9 0 -5 7 -11 15
-15 11 -4 15 -22 15 -71 0 -37 4 -65 10 -65 6 0 10 28 10 65 0 49 4 67 15 71
8 4 15 10 15 15 0 5 -7 9 -15 9 -10 0 -15 10 -15 30 0 17 -4 30 -10 30 -5 0
-10 -13 -10 -30z"/>
<path d="M2040 1140 c-6 -11 -7 -20 -2 -20 5 0 17 9 27 20 16 18 16 20 2 20
-9 0 -21 -9 -27 -20z"/>
<path d="M2250 1145 c0 -8 7 -15 15 -15 8 0 15 7 15 15 0 8 -7 15 -15 15 -8 0
-15 -7 -15 -15z"/>
<path d="M2622 1144 c-34 -24 -27 -53 24 -100 40 -37 44 -45 34 -63 -13 -25
-37 -27 -62 -4 -25 22 -36 8 -13 -17 22 -24 52 -26 83 -4 36 25 28 58 -23 101
-45 37 -57 66 -31 76 7 3 24 -1 35 -10 31 -21 41 -6 12 18 -28 23 -31 23 -59
3z"/>
<path d="M1187 1140 c-10 -28 -29 -191 -23 -197 11 -12 16 4 23 71 3 37 9 69
13 71 4 2 22 -29 40 -70 18 -41 36 -75 39 -75 3 0 22 34 41 76 38 83 42 82 54
-18 4 -32 12 -58 18 -58 6 0 8 12 4 32 -3 17 -9 62 -13 100 -3 38 -10 71 -14
74 -5 2 -25 -32 -45 -76 -20 -44 -41 -79 -45 -78 -5 2 -26 39 -48 83 -24 49
-41 74 -44 65z"/>
<path d="M1440 1020 c0 -47 4 -80 10 -80 6 0 10 33 10 80 0 47 -4 80 -10 80
-6 0 -10 -33 -10 -80z"/>
<path d="M1507 1093 c-10 -19 -2 -146 11 -151 9 -3 12 12 12 52 0 48 3 58 24
71 19 13 29 14 45 5 18 -9 21 -20 21 -70 0 -33 4 -60 10 -60 6 0 10 28 10 65
0 58 -3 66 -25 81 -21 14 -30 15 -52 5 -18 -8 -29 -9 -38 -1 -7 6 -15 7 -18 3z"/>
<path d="M1690 1021 c0 -47 4 -81 10 -81 6 0 10 31 10 74 0 41 -4 78 -10 81
-6 4 -10 -23 -10 -74z"/>
<path d="M1756 1084 c-24 -24 -20 -39 21 -71 42 -34 38 -59 -8 -49 -35 7 -39
-11 -5 -20 31 -8 66 11 66 36 0 12 -15 29 -35 42 -19 13 -35 28 -35 35 0 16
22 22 43 11 11 -5 17 -5 17 1 0 9 -31 31 -44 31 -2 0 -12 -7 -20 -16z"/>
<path d="M2013 1090 c-32 -13 -56 -55 -49 -85 15 -60 89 -85 137 -46 30 24 19
39 -13 17 -12 -9 -33 -16 -45 -16 -26 0 -67 36 -58 50 4 6 37 10 76 10 38 0
69 4 69 9 0 19 -45 60 -70 65 -14 3 -35 1 -47 -4z m62 -22 c40 -18 29 -28 -30
-28 -59 0 -71 12 -27 28 15 6 28 11 29 11 1 1 14 -4 28 -11z"/>
<path d="M2167 1094 c-11 -11 -8 -154 3 -154 6 0 10 23 10 50 0 41 5 56 26 77
28 28 26 40 -4 24 -14 -8 -21 -8 -24 0 -2 6 -7 7 -11 3z"/>
<path d="M2259 1093 c-7 -35 -5 -153 2 -153 5 0 9 36 9 80 0 44 -2 80 -5 80
-3 0 -6 -3 -6 -7z"/>
<path d="M2360 1087 c-38 -19 -55 -61 -40 -98 31 -75 141 -63 156 17 11 58
-62 109 -116 81z m74 -28 c31 -24 33 -52 6 -79 -26 -26 -64 -25 -90 2 -26 28
-25 44 5 73 29 30 45 31 79 4z"/>
<path d="M2795 1090 c-55 -22 -66 -88 -21 -127 33 -28 76 -30 107 -4 32 26 19
36 -19 14 -38 -22 -85 -9 -90 24 -3 21 0 22 67 20 39 -1 71 1 71 5 0 24 -27
59 -53 68 -34 12 -35 12 -62 0z m59 -20 c43 -16 29 -30 -30 -30 -65 0 -64 16
3 39 1 1 13 -3 27 -9z"/>
<path d="M2950 1020 c0 -47 4 -80 10 -80 6 0 10 23 10 50 0 37 5 55 20 70 40
40 70 12 70 -66 0 -30 5 -54 10 -54 6 0 10 23 10 50 0 37 5 55 20 70 40 40 70
12 70 -66 0 -30 5 -54 10 -54 6 0 10 27 10 60 0 47 -4 64 -20 80 -24 24 -38
25 -67 5 -19 -13 -24 -13 -51 2 -28 16 -31 16 -56 0 -22 -15 -26 -15 -26 -2 0
8 -4 15 -10 15 -6 0 -10 -33 -10 -80z"/>
<path d="M3273 1090 c-27 -11 -43 -40 -43 -79 0 -36 40 -71 80 -71 30 0 80 34
68 46 -5 4 -16 0 -26 -9 -24 -22 -65 -22 -85 1 -33 36 -22 44 53 40 53 -2 70
0 70 10 0 26 -20 50 -51 61 -37 13 -37 13 -66 1z m88 -36 c10 -12 1 -14 -51
-14 -53 0 -61 2 -50 14 21 27 79 26 101 0z"/>
<path d="M3467 1084 c-15 -8 -32 -26 -37 -40 -25 -65 56 -128 121 -94 13 7 19
7 19 0 0 -5 5 -10 10 -10 6 0 10 33 10 80 0 47 -4 80 -10 80 -5 0 -10 -5 -10
-11 0 -6 -7 -8 -16 -5 -38 15 -61 15 -87 0z m91 -32 c20 -26 14 -60 -13 -78
-31 -20 -69 -12 -91 20 -37 58 60 112 104 58z"/>
<path d="M3630 1020 c0 -47 4 -80 10 -80 6 0 10 20 10 44 0 58 8 76 38 87 18
7 22 13 15 20 -8 8 -17 7 -32 0 -14 -8 -21 -8 -21 -1 0 5 -4 10 -10 10 -6 0
-10 -33 -10 -80z"/>
</g>
</svg>
